<mxfile host="app.diagrams.net" modified="2022-08-06T22:43:07.130Z" agent="5.0 (Windows)" etag="vrcMyT7cv0aIgEi1vQHl" version="17.2.2" type="github">
  <diagram id="vw0osyHE8EjjYchKXd36" name="Page-1">
    <mxGraphModel dx="2258" dy="1207" grid="1" gridSize="10" guides="1" tooltips="1" connect="1" arrows="1" fold="1" page="1" pageScale="1" pageWidth="850" pageHeight="1100" math="0" shadow="0">
      <root>
        <mxCell id="0" />
        <mxCell id="1" parent="0" />
        <mxCell id="9uNRMu9eZSkaDnIiAzZb-10" value="" style="endArrow=none;html=1;rounded=0;fontSize=20;strokeColor=#000000;strokeWidth=7;startArrow=none;" edge="1" parent="1" source="9uNRMu9eZSkaDnIiAzZb-11" target="JcU-JbF_AnAd4ErA4KHb-64">
          <mxGeometry width="50" height="50" relative="1" as="geometry">
            <mxPoint x="380" y="380" as="sourcePoint" />
            <mxPoint x="750" y="420" as="targetPoint" />
          </mxGeometry>
        </mxCell>
        <mxCell id="9uNRMu9eZSkaDnIiAzZb-6" value="" style="ellipse;whiteSpace=wrap;html=1;aspect=fixed;fontSize=20;strokeColor=#FFD966;strokeWidth=9;fillColor=none;" vertex="1" parent="1">
          <mxGeometry x="650" y="340" width="80" height="80" as="geometry" />
        </mxCell>
        <mxCell id="JcU-JbF_AnAd4ErA4KHb-43" value="" style="ellipse;whiteSpace=wrap;html=1;fillColor=#d80073;strokeColor=#A50040;fontColor=#ffffff;" parent="1" vertex="1">
          <mxGeometry x="200" y="555" width="40" height="40" as="geometry" />
        </mxCell>
        <mxCell id="JcU-JbF_AnAd4ErA4KHb-45" value="" style="ellipse;whiteSpace=wrap;html=1;fillColor=#647687;strokeColor=#314354;fontColor=#ffffff;rotation=90;" parent="1" vertex="1">
          <mxGeometry x="200" y="715.0011054066506" width="40" height="40" as="geometry" />
        </mxCell>
        <mxCell id="JcU-JbF_AnAd4ErA4KHb-46" value="" style="ellipse;whiteSpace=wrap;html=1;fillColor=#1ba1e2;strokeColor=#006EAF;fontColor=#ffffff;" parent="1" vertex="1">
          <mxGeometry x="200" y="635" width="40" height="40" as="geometry" />
        </mxCell>
        <mxCell id="JcU-JbF_AnAd4ErA4KHb-53" value="&lt;font style=&quot;font-size: 20px&quot;&gt;Anchor&lt;br&gt;&lt;/font&gt;" style="text;html=1;strokeColor=none;fillColor=none;align=left;verticalAlign=middle;whiteSpace=wrap;rounded=0;" parent="1" vertex="1">
          <mxGeometry x="260" y="555" width="220" height="40" as="geometry" />
        </mxCell>
        <mxCell id="JcU-JbF_AnAd4ErA4KHb-58" value="" style="ellipse;whiteSpace=wrap;html=1;fillColor=#60a917;strokeColor=#2D7600;fontColor=#ffffff;" parent="1" vertex="1">
          <mxGeometry x="200" y="795" width="40" height="40" as="geometry" />
        </mxCell>
        <mxCell id="JcU-JbF_AnAd4ErA4KHb-59" value="&lt;font style=&quot;font-size: 20px&quot;&gt;Motor&lt;br&gt;&lt;/font&gt;" style="text;html=1;strokeColor=none;fillColor=none;align=left;verticalAlign=middle;whiteSpace=wrap;rounded=0;" parent="1" vertex="1">
          <mxGeometry x="260" y="795" width="220" height="40" as="geometry" />
        </mxCell>
        <mxCell id="JcU-JbF_AnAd4ErA4KHb-60" value="&lt;font style=&quot;font-size: 20px&quot;&gt;Free axis of rotation&lt;br&gt;&lt;/font&gt;" style="text;html=1;strokeColor=none;fillColor=none;align=left;verticalAlign=middle;whiteSpace=wrap;rounded=0;" parent="1" vertex="1">
          <mxGeometry x="260" y="715" width="220" height="40" as="geometry" />
        </mxCell>
        <mxCell id="JcU-JbF_AnAd4ErA4KHb-61" value="&lt;font style=&quot;font-size: 20px&quot;&gt;Pen&lt;br&gt;&lt;/font&gt;" style="text;html=1;strokeColor=none;fillColor=none;align=left;verticalAlign=middle;whiteSpace=wrap;rounded=0;" parent="1" vertex="1">
          <mxGeometry x="260" y="635" width="220" height="40" as="geometry" />
        </mxCell>
        <mxCell id="JcU-JbF_AnAd4ErA4KHb-64" value="" style="ellipse;whiteSpace=wrap;html=1;fillColor=#60a917;strokeColor=#2D7600;fontColor=#ffffff;" parent="1" vertex="1">
          <mxGeometry x="670" y="360" width="40" height="40" as="geometry" />
        </mxCell>
        <mxCell id="9uNRMu9eZSkaDnIiAzZb-2" value="" style="ellipse;whiteSpace=wrap;html=1;aspect=fixed;fontSize=20;strokeColor=#FFD966;strokeWidth=9;fillColor=none;" vertex="1" parent="1">
          <mxGeometry x="200" y="875" width="40" height="40" as="geometry" />
        </mxCell>
        <mxCell id="9uNRMu9eZSkaDnIiAzZb-3" value="&lt;font style=&quot;font-size: 20px&quot;&gt;Weighted Ring&lt;br&gt;&lt;/font&gt;" style="text;html=1;strokeColor=none;fillColor=none;align=left;verticalAlign=middle;whiteSpace=wrap;rounded=0;" vertex="1" parent="1">
          <mxGeometry x="260" y="875" width="220" height="40" as="geometry" />
        </mxCell>
        <mxCell id="9uNRMu9eZSkaDnIiAzZb-8" value="" style="verticalLabelPosition=bottom;verticalAlign=top;html=1;shape=mxgraph.basic.arc;startAngle=0.8955544296107976;endAngle=0.25;fontSize=20;strokeColor=#000000;strokeWidth=6;fillColor=none;" vertex="1" parent="1">
          <mxGeometry x="605" y="295" width="170" height="170" as="geometry" />
        </mxCell>
        <mxCell id="9uNRMu9eZSkaDnIiAzZb-9" value="" style="triangle;whiteSpace=wrap;html=1;fontSize=20;strokeColor=#000000;strokeWidth=6;fillColor=none;rotation=90;" vertex="1" parent="1">
          <mxGeometry x="760" y="380" width="35" height="30" as="geometry" />
        </mxCell>
        <mxCell id="9uNRMu9eZSkaDnIiAzZb-11" value="" style="ellipse;whiteSpace=wrap;html=1;fillColor=#647687;strokeColor=#314354;fontColor=#ffffff;rotation=90;" vertex="1" parent="1">
          <mxGeometry x="520" y="360.0011054066506" width="40" height="40" as="geometry" />
        </mxCell>
        <mxCell id="9uNRMu9eZSkaDnIiAzZb-12" value="" style="endArrow=none;html=1;rounded=0;fontSize=20;strokeColor=#000000;strokeWidth=7;" edge="1" parent="1" source="9uNRMu9eZSkaDnIiAzZb-13" target="9uNRMu9eZSkaDnIiAzZb-11">
          <mxGeometry width="50" height="50" relative="1" as="geometry">
            <mxPoint x="130" y="380" as="sourcePoint" />
            <mxPoint x="669.9999999999873" y="380" as="targetPoint" />
          </mxGeometry>
        </mxCell>
        <mxCell id="9uNRMu9eZSkaDnIiAzZb-13" value="" style="ellipse;whiteSpace=wrap;html=1;fillColor=#1ba1e2;strokeColor=#006EAF;fontColor=#ffffff;" vertex="1" parent="1">
          <mxGeometry x="80" y="360" width="40" height="40" as="geometry" />
        </mxCell>
        <mxCell id="9uNRMu9eZSkaDnIiAzZb-14" value="" style="endArrow=none;html=1;rounded=0;fontSize=20;strokeColor=#000000;strokeWidth=7;startArrow=none;" edge="1" parent="1" source="JcU-JbF_AnAd4ErA4KHb-62">
          <mxGeometry width="50" height="50" relative="1" as="geometry">
            <mxPoint x="630" y="610" as="sourcePoint" />
            <mxPoint x="540" y="380" as="targetPoint" />
          </mxGeometry>
        </mxCell>
        <mxCell id="JcU-JbF_AnAd4ErA4KHb-62" value="" style="ellipse;whiteSpace=wrap;html=1;fillColor=#d80073;strokeColor=#A50040;fontColor=#ffffff;" parent="1" vertex="1">
          <mxGeometry x="670" y="730" width="40" height="40" as="geometry" />
        </mxCell>
        <mxCell id="9uNRMu9eZSkaDnIiAzZb-16" value="" style="endArrow=none;html=1;rounded=0;fontSize=20;strokeColor=#000000;strokeWidth=7;startArrow=none;" edge="1" parent="1" target="9uNRMu9eZSkaDnIiAzZb-18" source="JcU-JbF_AnAd4ErA4KHb-62">
          <mxGeometry width="50" height="50" relative="1" as="geometry">
            <mxPoint x="720" y="845.0011054066506" as="sourcePoint" />
            <mxPoint x="910" y="885" as="targetPoint" />
          </mxGeometry>
        </mxCell>
        <mxCell id="9uNRMu9eZSkaDnIiAzZb-17" value="" style="ellipse;whiteSpace=wrap;html=1;aspect=fixed;fontSize=20;strokeColor=#FFD966;strokeWidth=9;fillColor=none;" vertex="1" parent="1">
          <mxGeometry x="705" y="835" width="80" height="80" as="geometry" />
        </mxCell>
        <mxCell id="9uNRMu9eZSkaDnIiAzZb-18" value="" style="ellipse;whiteSpace=wrap;html=1;fillColor=#60a917;strokeColor=#2D7600;fontColor=#ffffff;" vertex="1" parent="1">
          <mxGeometry x="725" y="855" width="40" height="40" as="geometry" />
        </mxCell>
        <mxCell id="9uNRMu9eZSkaDnIiAzZb-21" value="" style="group;rotation=60;" vertex="1" connectable="0" parent="1">
          <mxGeometry x="660" y="790" width="187.5" height="170" as="geometry" />
        </mxCell>
        <mxCell id="9uNRMu9eZSkaDnIiAzZb-19" value="" style="verticalLabelPosition=bottom;verticalAlign=top;html=1;shape=mxgraph.basic.arc;startAngle=0.8955544296107976;endAngle=0.25;fontSize=20;strokeColor=#000000;strokeWidth=6;fillColor=none;rotation=60;" vertex="1" parent="9uNRMu9eZSkaDnIiAzZb-21">
          <mxGeometry x="4" y="-7" width="170" height="170" as="geometry" />
        </mxCell>
        <mxCell id="9uNRMu9eZSkaDnIiAzZb-20" value="" style="triangle;whiteSpace=wrap;html=1;fontSize=20;strokeColor=#000000;strokeWidth=6;fillColor=none;rotation=150;" vertex="1" parent="9uNRMu9eZSkaDnIiAzZb-21">
          <mxGeometry x="103" y="145" width="35" height="30" as="geometry" />
        </mxCell>
      </root>
    </mxGraphModel>
  </diagram>
</mxfile>
